<?xml version="1.0" standalone="no"?>
<!DOCTYPE svg PUBLIC "-//W3C//DTD SVG 1.1//EN" "http://www.w3.org/Graphics/SVG/1.1/DTD/svg11.dtd" >
<svg xmlns="http://www.w3.org/2000/svg">
<metadata>Generated by IcoMoon</metadata>
<defs>
<font id="icomoon" horiz-adv-x="1024">
<font-face units-per-em="1024" ascent="960" descent="-64" />
<missing-glyph horiz-adv-x="1024" />
<glyph unicode="&#x20;" horiz-adv-x="512" d="" />
<glyph unicode="&#xe900;" glyph-name="attach" horiz-adv-x="896" d="M323.368-64c-181.895 0-323.368 141.474-330.105 323.368-6.737 60.632 13.474 121.263 47.158 168.421l410.947 444.632c53.895 60.632 134.737 94.316 215.579 87.579 134.737-13.474 235.789-128 229.053-256 0-53.895-20.211-107.789-60.632-154.947l-370.526-350.316c0 0-6.737-6.737-6.737-6.737-26.947-26.947-60.632-47.158-94.316-53.895-40.421-6.737-74.105 6.737-107.789 26.947-26.947 20.211-47.158 53.895-53.895 94.316 0 40.421 6.737 74.105 33.684 107.789l357.053 363.789 60.632-60.632-350.316-363.789c-6.737-6.737-13.474-20.211-13.474-33.684s6.737-26.947 20.211-33.684c13.474-13.474 26.947-20.211 40.421-13.474 13.474 0 26.947 6.737 33.684 20.211l13.474 13.474 370.526 350.316c26.947 20.211 40.421 60.632 40.421 94.316 0 87.579-60.632 154.947-148.211 168.421-53.895 0-101.053-20.211-134.737-53.895l-404.211-437.895c-20.211-26.947-33.684-67.368-26.947-107.789 0-134.737 107.789-235.789 235.789-235.789 0 0 0 0 0 0 6.737 0 20.211 0 26.947 0 33.684 0 60.632 6.737 80.842 26.947l309.895 309.895 60.632-60.632-316.632-316.632c-40.421-33.684-87.579-47.158-134.737-47.158 0-13.474-13.474-13.474-33.684-13.474 6.737 0 0 0 0 0z" />
<glyph unicode="&#xe901;" glyph-name="c1" horiz-adv-x="1160" d="M1160.17 829.277h-1160.17v130.723h1160.17v-130.723zM54.468 883.745h1051.234v21.787h-1051.234v-21.787zM27.234 524.255h1105.702v-54.468h-1105.702v54.468zM245.106 856.511h54.468v-789.787h-54.468v789.787zM855.149 856.511h54.468v-789.787h-54.468v789.787zM435.745-64h-310.468v936.851h310.468v-936.851zM152.511-36.766h256v882.383h-256v-882.383zM1040.34-64h-310.468v936.851h310.468v-936.851zM757.106-36.766h256v882.383h-256v-882.383z" />
<glyph unicode="&#xe902;" glyph-name="c2" horiz-adv-x="2798" d="M2281.188-64h-1774.257c-283.881 0-506.931 233.188-506.931 506.931 0 283.881 233.188 506.931 506.931 506.931h1774.257c283.881 0 506.931-233.188 506.931-506.931 10.139-273.743-223.050-506.931-506.931-506.931zM506.931 858.614c-223.050 0-405.545-182.495-405.545-405.545s182.495-405.545 405.545-405.545h1774.257c223.050 0 405.545 182.495 405.545 405.545s-182.495 405.545-405.545 405.545h-1774.257zM852.757-18.861l532.725 933.371 44.027-25.129-532.725-933.371-44.027 25.129zM406.182 30.13l507.597 889.344 44.027-25.129-507.597-889.344-44.027 25.129zM1811.45-11.577l533.693 932.834 44.002-25.174-533.693-932.834-44.002 25.174zM1346.46-13.553l532.725 933.371 44.027-25.129-532.725-933.371-44.027 25.129z" />
<glyph unicode="&#xe903;" glyph-name="c3" horiz-adv-x="2695" d="M2627.368-64h-2627.368v1024h471.579l13.474-26.947c53.895-94.316 161.684-242.526 175.158-256l13.474-13.474c53.895-53.895 121.263-148.211 687.158-148.211 538.947 0 592.842 67.368 633.263 121.263 13.474 13.474 26.947 13.474 26.947 26.947 26.947 26.947 148.211 175.158 229.053 282.947l26.947 13.474h417.684v-1024h-67.368zM134.737 70.737h2425.263v754.526h-215.579c-53.895-53.895-188.632-229.053-215.579-256 0 0-13.474-13.474-13.474-13.474-80.842-94.316-188.632-161.684-741.053-161.684-579.368 0-700.632 80.842-794.947 188.632h-13.474c-26.947 40.421-121.263 175.158-175.158 242.526h-256v-754.526zM2330.947 84.211h-67.368v94.316h-1859.368v67.368h1926.737zM2263.579 892.632h134.737v-889.263h-134.737v889.263zM363.789 892.632h134.737v-889.263h-134.737v889.263z" />
<glyph unicode="&#xe904;" glyph-name="c4" horiz-adv-x="1177" d="M1103.204 371.624h-56.575v79.204c0 90.519-22.63 164.066-67.89 203.669-62.232 56.575-135.779 56.575-141.436 56.575h-695.867v56.575h695.867c5.657 0 101.834 5.657 181.039-67.89 56.575-56.575 90.519-141.436 90.519-248.928v-79.204zM1069.26-64c-28.287 0-56.575 11.315-73.547 28.287-28.287 33.945-33.945 96.177-16.972 198.011 0 11.315 5.657 28.287 5.657 39.602 11.315 67.89 16.972 141.436 79.204 141.436 67.89 0 79.204-73.547 101.834-198.011v0c11.315-67.89 22.63-141.436-11.315-181.039-16.972-16.972-45.26-28.287-84.862-28.287zM1063.602 286.762c-11.315-5.657-16.972-62.232-22.63-90.519 0-11.315-5.657-28.287-5.657-39.602-5.657-28.287-22.63-124.464 5.657-152.751 5.657-5.657 11.315-11.315 28.287-11.315 28.287 0 39.602 11.315 39.602 11.315 16.972 22.63 11.315 84.862 0 135.779v0c-11.315 79.204-22.63 147.094-45.26 147.094zM289.756 818.685l21.991 17.793 149.459-184.721-21.991-17.793-149.459 184.721zM182.515 817.972l21.991 17.793 149.459-184.721-21.991-17.793-149.459 184.721zM511.158 816.54l21.991 17.793 149.459-184.721-21.991-17.793-149.459 184.721zM403.918 815.828l21.991 17.793 149.459-184.721-21.991-17.793-149.459 184.721zM848.619 507.403h-848.619v452.597h848.619v-452.597zM56.575 563.978h735.47v339.448h-735.47v-339.448z" />
<glyph unicode="&#xe905;" horiz-adv-x="1019" d="M298.871-64l-298.871 298.871 499.751 499.751 298.871-298.871-499.751-499.751zM68.593 234.871l235.177-235.177 431.158 431.158-235.177 235.177-431.158-431.158z" />
<glyph unicode="&#xe906;" horiz-adv-x="1019" d="M489.952 303.464c-29.397 0-63.694 9.799-88.191 34.297s-34.297 53.895-34.297 88.191c0 34.297 14.699 63.694 34.297 88.191v0c48.995 48.995 127.388 48.995 171.483 0 48.995-48.995 48.995-127.388 0-171.483-19.598-24.498-48.995-39.196-83.292-39.196zM431.158 489.646c-14.699-14.699-24.498-39.196-24.498-58.794 0-24.498 9.799-44.096 24.498-58.794 34.297-34.297 88.191-34.297 122.488 0s34.297 88.191 0 122.488c-34.297 24.498-88.191 24.498-122.488-4.9z" />
<glyph unicode="&#xe907;" horiz-adv-x="1019" d="M515.521 449.146c13.394-13.394 13.394-35.109 0-48.502s-35.109-13.394-48.502 0c-13.394 13.394-13.394 35.109 0 48.502s35.109 13.394 48.502 0z" />
<glyph unicode="&#xe908;" horiz-adv-x="1019" d="M321.534 362.553c13.394-13.394 13.394-35.109 0-48.502s-35.109-13.394-48.502 0c-13.394 13.394-13.394 35.109 0 48.502s35.109 13.394 48.502 0z" />
<glyph unicode="&#xe909;" horiz-adv-x="1019" d="M424.478 258.546c13.394-13.394 13.394-35.109 0-48.502s-35.109-13.394-48.502 0c-13.394 13.394-13.394 35.109 0 48.502s35.109 13.394 48.502 0z" />
<glyph unicode="&#xe90a;" horiz-adv-x="1019" d="M221.265 258.315c13.394-13.394 13.394-35.109 0-48.502s-35.109-13.394-48.502 0c-13.394 13.394-13.394 35.109 0 48.502s35.109 13.394 48.502 0z" />
<glyph unicode="&#xe90b;" horiz-adv-x="1019" d="M323.72 154.513c13.394-13.394 13.394-35.109 0-48.502s-35.109-13.394-48.502 0c-13.394 13.394-13.394 35.109 0 48.502s35.109 13.394 48.502 0z" />
<glyph unicode="&#xe90c;" horiz-adv-x="1019" d="M813.321 553.34c-4.9 112.689-93.091 200.88-205.78 200.88v24.498c122.488 0 225.378-97.99 230.278-225.378h-24.498z" />
<glyph unicode="&#xe90d;" horiz-adv-x="1019" d="M901.512 558.239c-4.9 156.785-132.287 279.273-293.971 284.172v24.498c171.483 0 308.67-137.187 313.569-303.77l-19.598-4.9z" />
<glyph unicode="&#xe90e;" horiz-adv-x="1019" d="M994.603 563.139c-9.799 205.78-176.383 367.464-382.163 372.364v24.498c220.478 0 396.861-176.383 406.66-391.962l-24.498-4.9z" />
<glyph unicode="&#xe90f;" glyph-name="call" horiz-adv-x="883" d="M607.338-64c-35.31 0-70.621 7.062-105.931 14.124-134.179 49.434-254.234 141.241-338.979 254.234l-21.186 35.31c-84.745 120.055-134.179 254.234-141.241 402.538 0 120.055 56.497 225.986 162.428 289.545 28.248 21.186 63.559 35.31 98.869 28.248s63.559-42.372 98.869-112.993c0-7.062 7.062-14.124 7.062-21.186 28.248-49.434 77.683-148.303-35.31-218.924-35.31-14.124-63.559-42.372-70.621-70.621 0-70.621 21.186-134.179 63.559-183.614 42.372-56.497 98.869-98.869 162.428-120.055 35.31 0 70.621 14.124 91.807 42.372 105.931 84.745 183.614 0 218.924-35.31 7.062-7.062 7.062-7.062 14.124-14.124 56.497-49.434 77.683-91.807 77.683-127.117 0-42.372-28.248-63.559-63.559-91.807v0c-63.559-42.372-141.241-70.621-218.924-70.621zM240.11 924.69c-21.186 0-35.31-14.124-63.559-28.248-84.745-49.434-141.241-148.303-141.241-254.234 7.062-134.179 49.434-268.359 134.179-381.352l28.248-35.31c77.683-112.993 190.676-197.738 317.793-240.11 98.869-35.31 204.8-14.124 282.483 56.497v0c28.248 21.186 49.434 42.372 49.434 63.559 0 28.248-21.186 56.497-63.559 98.869-7.062 7.062-7.062 7.062-14.124 14.124-49.434 49.434-98.869 91.807-169.49 35.31-28.248-35.31-70.621-56.497-112.993-56.497h-7.062c-77.683 21.186-134.179 70.621-176.552 141.241-49.434 56.497-77.683 127.117-70.621 204.8v7.062c14.124 42.372 49.434 77.683 91.807 91.807 70.621 49.434 49.434 105.931 14.124 169.49 0 7.062-7.062 14.124-7.062 21.186-28.248 56.497-56.497 84.745-77.683 91.807-7.062 0-7.062 0-14.124 0zM282.483 592.772c-42.372 56.497-77.683 112.993-98.869 183.614l28.248 7.062c21.186-63.559 49.434-120.055 91.807-169.49l-21.186-21.186zM713.269 41.931c-56.497 63.559-112.993 127.117-162.428 197.738l28.248 21.186c49.434-70.621 98.869-134.179 162.428-190.676l-28.248-28.248z" />
<glyph unicode="&#xe910;" glyph-name="carousel" horiz-adv-x="546" d="M36.088-64l-31.577 31.577 478.167 478.167-482.678 482.678 31.577 31.577 514.256-514.256z" />
<glyph unicode="&#xe911;" glyph-name="cart" horiz-adv-x="906" d="M751.723 95.815h-449.85c-29.595 0-59.191 17.757-76.948 35.514-17.757 23.676-29.595 53.272-29.595 82.867 5.919 59.191 59.191 106.543 118.382 100.624l-5.919-41.434c-35.514 0-71.029-23.676-71.029-59.191 0-17.757 5.919-35.514 17.757-47.353s29.595-23.676 47.353-23.676h443.931v-47.353zM278.197 285.225l-88.786 627.422h-189.41v47.353h224.925l94.705-668.855zM775.399 267.468h-473.526v47.353h438.012l106.543 396.578h-603.746v41.434h662.936zM378.821-64c-47.353 0-82.867 35.514-82.867 82.867s35.514 82.867 82.867 82.867 82.867-35.514 82.867-82.867-35.514-82.867-82.867-82.867zM378.821 54.382c-17.757 0-35.514-17.757-35.514-35.514s17.757-35.514 35.514-35.514 35.514 17.757 35.514 35.514-11.838 35.514-35.514 35.514zM751.723-64c-47.353 0-82.867 35.514-82.867 82.867s35.514 82.867 82.867 82.867 82.867-35.514 82.867-82.867-41.434-82.867-82.867-82.867zM751.723 54.382c-17.757 0-35.514-17.757-35.514-35.514s17.757-35.514 35.514-35.514 35.514 17.757 35.514 35.514-17.757 35.514-35.514 35.514zM337.387 717.318l-29.595 35.514 177.572 165.734 165.734-159.815-29.595-35.514-136.139 136.139zM834.59 711.399l-112.462 142.058-100.624-94.705-29.595 29.595 136.139 130.22 142.058-183.491z" />
<glyph unicode="&#xe912;" d="M0 960h1024v-1024h-1024v1024z" />
<glyph unicode="&#xe913;" d="M486.4 200.533l-230.4 230.4 68.267 59.733 162.133-162.133 256 307.2 68.267-59.733z" />
<glyph unicode="&#xe914;" glyph-name="check_inactive" d="M1024-64h-1024v1024h1024v-1024zM78.769 14.769h866.462v866.462h-866.462v-866.462z" />
<glyph unicode="&#xe915;" glyph-name="close" horiz-adv-x="1029" d="M-0.361-25.254l990.372 983.672 37.98-38.238-990.372-983.672-37.98 38.238zM5.269 921.8l38.12 38.098 986.743-987.301-38.12-38.098-986.743 987.301z" />
<glyph unicode="&#xe916;" glyph-name="color" horiz-adv-x="1101" d="M519.68 335.36l-120.32 122.88 35.84 35.84 81.92-81.92 135.68 156.16 38.4-33.28z" />
<glyph unicode="&#xe917;" glyph-name="del" d="M-1.996 904.35l49.096 49.417 973.509-967.197-49.096-49.417-973.509 967.197zM1.292-11.853l967.059 973.646 49.424-49.089-967.059-973.646-49.424 49.089z" />
<glyph unicode="&#xe918;" glyph-name="drop" horiz-adv-x="1698" d="M849.171-64l-849.171 849.171 174.829 174.829 674.341-674.341 674.341 674.341 174.829-174.829z" />
<glyph unicode="&#xe919;" glyph-name="dropbig" horiz-adv-x="1858" d="M935.506-64l-935.506 935.506 88.494 88.494 847.012-834.37 834.37 834.37 88.494-88.494z" />
<glyph unicode="&#xe91a;" glyph-name="fb" d="M758.099-64h-22.63v435.624h22.63c16.972 0 33.945 0 50.917 0 11.315 0 28.287 0 39.602 0 5.657 33.945 5.657 62.232 11.315 90.519h-118.807v113.149c5.657 33.945 33.945 50.917 62.232 50.917h62.232v101.834h-113.149c-33.945 0-73.547-11.315-101.834-33.945-16.972-16.972-33.945-45.26-33.945-73.547v-147.094h-79.204v-90.519h79.204v-441.282h-429.967c-101.834 0-181.039 79.204-186.696 181.039v667.58c0 50.917 22.63 90.519 56.575 124.464s79.204 45.26 130.122 45.26h661.923c5.657 0 5.657 0 11.315 0 45.26 0 84.862-22.63 118.807-50.917 28.287-33.945 45.26-73.547 45.26-118.807v-667.58c5.657-96.177-73.547-181.039-169.724-186.696h-96.177zM780.729-24.398h67.89c73.547 5.657 130.122 67.89 130.122 141.436v673.238c0 33.945-11.315 67.89-33.945 90.519s-56.575 39.602-84.862 39.602c0 0-5.657 0-5.657 0h-667.58c-39.602 0-73.547-11.315-101.834-39.602-22.63-22.63-39.602-56.575-39.602-90.519v-667.58c0-79.204 67.89-141.436 141.436-141.436h390.365v356.42h-79.204v169.724h79.204v107.492c0 39.602 16.972 79.204 45.26 107.492 39.602 33.945 79.204 45.26 130.122 45.26h152.751v-181.039h-107.492c-11.315 0-16.972-5.657-16.972-11.315v-67.89h124.464v-22.63c0-45.26-5.657-84.862-16.972-135.779v-16.972h-16.972c-16.972 0-39.602 0-56.575 0-11.315 0-16.972 0-28.287 0v-356.42z" />
<glyph unicode="&#xe91b;" glyph-name="guarantee" horiz-adv-x="1028" d="M441.937-64c-7.186 0-16.168 3.593-21.558 8.982l-43.116 43.116c-3.593 3.593-7.186 3.593-10.779 3.593l-57.488-10.779c-12.575-1.796-26.947 3.593-32.337 16.168l-26.947 52.098c-1.796 3.593-5.389 5.389-8.982 7.186l-59.284 5.389c-14.372 1.796-23.354 12.575-25.151 25.151l-12.575 57.488c0 3.593-3.593 7.186-7.186 8.982l-53.895 23.354c-12.575 5.389-19.761 17.965-17.965 32.337l7.186 57.488c0 3.593-1.796 7.186-3.593 10.779l-46.709 37.726c-10.779 8.982-14.372 23.354-7.186 35.93l23.354 53.895c1.796 3.593 1.796 7.186 0 10.779l-32.337 50.302c-7.186 10.779-5.389 26.947 3.593 35.93l37.726 44.912c1.796 3.593 3.593 7.186 1.796 10.779l-16.168 57.488c-3.593 12.575 1.796 26.947 12.575 34.133l50.302 30.54c3.593 1.796 5.389 5.389 5.389 10.779l1.796 59.284c0 12.575 8.982 25.151 23.354 28.744l57.488 14.372c3.593 1.796 7.186 3.593 8.982 7.186l19.761 55.691c3.593 12.575 16.168 21.558 30.54 19.761l59.284-1.796c3.593 0 7.186 1.796 10.779 5.389l34.133 48.505c7.186 10.779 21.558 14.372 34.133 10.779l55.691-19.761c3.593-1.796 8.982 0 10.779 1.796l46.709 35.93c10.779 7.186 26.947 7.186 35.93-1.796l46.709-35.93c3.593-1.796 7.186-3.593 10.779-1.796l59.284 19.761c12.575 3.593 26.947 0 34.133-10.779l34.133-48.505c1.796-3.593 5.389-5.389 10.779-5.389l59.284 1.796c12.575 0 25.151-7.186 30.54-19.761l19.761-55.691c1.796-3.593 5.389-7.186 8.982-7.186l57.488-14.372c12.575-3.593 21.558-14.372 23.354-28.744l1.796-59.284c0-3.593 1.796-8.982 5.389-10.779l50.302-30.54c10.779-7.186 16.168-21.558 12.575-34.133l-16.168-55.691c-1.796-3.593 0-8.982 1.796-10.779l39.523-44.912c8.982-10.779 10.779-25.151 3.593-35.93l-32.337-50.302c-1.796-3.593-1.796-7.186 0-10.779l23.354-53.895c5.389-12.575 1.796-26.947-7.186-35.93l-44.912-37.726c-3.593-1.796-5.389-7.186-3.593-10.779l7.186-59.284c1.796-12.575-5.389-26.947-17.965-30.54l-53.895-23.354c-3.593-1.796-7.186-5.389-7.186-8.982l-10.779-57.488c-1.796-12.575-12.575-23.354-25.151-25.151l-61.081-5.389c-3.593 0-7.186-3.593-8.982-7.186l-26.947-52.098c-5.389-12.575-19.761-17.965-32.337-16.168l-57.488 10.779c-3.593 0-8.982 0-10.779-3.593l-41.319-41.319c-8.982-8.982-23.354-12.575-35.93-5.389l-52.098 26.947c-3.593 1.796-7.186 1.796-10.779 0l-52.098-28.744c-10.779-1.796-16.168-3.593-19.761-3.593zM370.077 9.656c7.186 0 16.168-3.593 21.558-8.982l41.319-41.319c3.593-3.593 8.982-5.389 14.372-1.796l52.098 28.744c8.982 5.389 19.761 5.389 28.744 0l52.098-26.947c5.389-1.796 10.779-1.796 14.372 1.796l41.319 41.319c7.186 7.186 17.965 10.779 26.947 8.982l57.488-10.779c5.389-1.796 10.779 1.796 12.575 7.186l26.947 52.098c5.389 8.982 14.372 14.372 23.354 16.168l61.081 5.389c5.389 0 8.982 5.389 10.779 10.779l10.779 59.284c1.796 10.779 8.982 17.965 17.965 21.558l53.895 23.354c5.389 1.796 8.982 7.186 7.186 12.575l-7.186 59.284c0 10.779 3.593 19.761 10.779 25.151l44.912 37.726c3.593 3.593 5.389 8.982 3.593 14.372l-23.354 53.895c-3.593 8.982-3.593 19.761 1.796 28.744l32.337 50.302c3.593 5.389 1.796 10.779-1.796 14.372l-39.523 44.912c-7.186 7.186-8.982 17.965-7.186 28.744l16.168 55.691c1.796 5.389 0 10.779-5.389 14.372l-50.302 30.54c-8.982 5.389-14.372 14.372-14.372 25.151l-1.796 59.284c0 5.389-3.593 10.779-8.982 10.779l-57.488 14.372c-8.982 1.796-17.965 8.982-21.558 19.761l-19.761 55.691c-1.796 5.389-7.186 8.982-12.575 8.982l-59.284-1.796c-10.779 0-19.761 3.593-25.151 12.575l-34.133 48.505c-3.593 3.593-8.982 5.389-14.372 3.593l-55.691-19.761c-8.982-3.593-19.761-1.796-28.744 3.593l-48.505 35.93c-3.593 3.593-10.779 3.593-14.372 1.796l-46.709-35.93c-8.982-5.389-17.965-7.186-28.744-3.593l-55.691 19.761c-5.389 1.796-10.779 0-14.372-3.593l-34.133-48.505c-5.389-8.982-16.168-12.575-25.151-12.575l-59.284 1.796c-5.389 0-10.779-3.593-12.575-8.982l-19.761-55.691c-3.593-8.982-10.779-16.168-21.558-19.761l-57.488-14.372c-5.389-1.796-8.982-5.389-8.982-10.779l-1.796-59.284c0-10.779-5.389-19.761-14.372-25.151l-50.302-30.54c-5.389-3.593-7.186-8.982-5.389-14.372l16.168-57.488c3.593-8.982 0-19.761-7.186-28.744l-39.523-44.912c1.796-7.186 0-12.575 3.593-17.965l32.337-50.302c5.389-8.982 5.389-19.761 1.796-28.744l-23.354-53.895c-1.796-5.389-1.796-10.779 3.593-14.372l46.709-37.726c5.389-5.389 8.982-16.168 8.982-25.151l-7.186-59.284c0-5.389 1.796-10.779 7.186-12.575l53.895-23.354c8.982-3.593 16.168-12.575 17.965-21.558l10.779-57.488c0-5.389 5.389-10.779 10.779-10.779l59.284-5.389c10.779-1.796 17.965-7.186 23.354-16.168l26.947-52.098c1.796-5.389 7.186-7.186 12.575-7.186l57.488 10.779c1.796 0 3.593 0 7.186 0zM492.239 236.014l-233.544 249.712 50.302 46.709 179.649-192.225 256.898 317.979 53.895-43.116-307.2-379.060zM283.846 485.726l206.596-222.765 282.049 350.316-25.151 19.761-258.695-319.775-179.649 194.021-25.151-21.558z" />
<glyph unicode="&#xe91c;" glyph-name="hint" d="M519.877 361.354h-63.015c0 0 0 7.877-7.877 15.754 0 7.877-7.877 15.754-7.877 23.631 0 15.754 0 31.508 7.877 39.385s7.877 31.508 15.754 47.262c7.877 7.877 23.631 31.508 47.262 55.138s31.508 47.262 31.508 63.015c0 31.508-23.631 47.262-63.015 47.262-15.754 0-39.385-7.877-63.015-31.508l-31.508 70.892c31.508 23.631 63.015 31.508 118.154 31.508 39.385 0 70.892-7.877 94.523-31.508 23.631-15.754 31.508-47.262 31.508-78.769 0-23.631 0-47.262-7.877-63.015-15.754-15.754-31.508-31.508-55.138-55.138-15.754-23.631-31.508-39.385-39.385-55.138s-15.754-31.508-15.754-47.262c0-7.877 7.877-15.754 7.877-31.508zM488.369 314.092c15.754 0 31.508-7.877 39.385-15.754s15.754-23.631 15.754-39.385 0-31.508-15.754-39.385c-7.877-7.877-23.631-15.754-39.385-15.754s-23.631 7.877-39.385 15.754-15.754 23.631-15.754 39.385 7.877 31.508 15.754 39.385 23.631 15.754 39.385 15.754zM512-64c-283.569 0-512 228.431-512 512s228.431 512 512 512 512-228.431 512-512-228.431-512-512-512zM512 881.231c-236.308 0-433.231-196.923-433.231-433.231s196.923-433.231 433.231-433.231c236.308 0 433.231 196.923 433.231 433.231s-196.923 433.231-433.231 433.231z" />
<glyph unicode="&#xe91d;" glyph-name="hint1" d="M514.327 417.745h-18.618c0 0 0 2.327-2.327 4.655 0 2.327-2.327 4.655-2.327 6.982 0 4.655 0 9.309 2.327 11.636s2.327 6.982 4.655 11.636c2.327 2.327 6.982 9.309 13.964 16.291s9.309 13.964 9.309 18.618c0 9.309-6.982 13.964-18.618 13.964-6.982 0-11.636-2.327-18.618-9.309l-11.636 18.618c9.309 6.982 20.945 9.309 34.909 9.309 11.636 0 20.945-2.327 27.927-9.309s11.636-13.964 11.636-23.273c0-6.982-2.327-13.964-4.655-18.618s-6.982-9.309-13.964-16.291c-6.982-6.982-11.636-11.636-13.964-16.291s-2.327-4.655-2.327-9.309c0 0 2.327-4.655 2.327-9.309zM505.018 403.782c4.655 0 9.309-2.327 11.636-4.655s4.655-6.982 4.655-11.636-2.327-9.309-4.655-11.636c-2.327-2.327-6.982-4.655-11.636-4.655s-9.309 2.327-11.636 4.655-4.655 6.982-4.655 11.636 2.327 9.309 4.655 11.636 6.982 4.655 11.636 4.655zM512 292.073c-83.782 0-151.273 67.491-151.273 151.273s67.491 151.273 151.273 151.273 151.273-67.491 151.273-151.273c0-83.782-67.491-151.273-151.273-151.273zM512 571.345c-69.818 0-128-58.182-128-128s58.182-128 128-128c69.818 0 128 58.182 128 128s-58.182 128-128 128z" />
<glyph unicode="&#xe91e;" glyph-name="houzz" horiz-adv-x="628" d="M291.785-64v363.355l313.806 181.677v-363.355l-313.806-181.677zM335.828 271.828v-264.258l231.226 137.634v264.258l-231.226-137.634zM605.591 409.462l-330.323 192.688 330.323 198.194v-390.882zM357.849 602.151l209.204-121.118v242.237l-209.204-121.118zM291.785 249.806v385.376l335.828-187.183-335.828-198.194zM335.828 563.613v-242.237l209.204 126.624-209.204 115.613zM22.022 84.645v390.882l335.828-187.183-335.828-203.699zM60.559 403.957v-242.237l214.71 121.118-214.71 121.118zM22.022 403.957v368.86l313.806 187.183v-374.366l-313.806-181.677zM60.559 750.796v-275.269l231.226 137.634v275.269l-231.226-137.634zM335.828 249.806l-335.828 187.183 335.828 198.194v-385.376zM82.581 436.989l209.204-121.118v247.742l-209.204-126.624z" />
<glyph unicode="&#xe91f;" glyph-name="label" horiz-adv-x="1026" d="M513.14 960l-66.138-72.98-84.383 50.174-43.332-88.944-95.786 22.806-15.964-98.067-95.786-6.842 13.684-98.067-91.225-34.209 43.332-88.944-77.541-61.577 66.138-70.699-54.735-82.102 84.383-47.893-27.367-93.506 95.786-22.806v-98.067l95.786 6.842 29.648-93.506 91.225 36.49 54.735-82.102 77.541 61.577 77.541-61.577 54.735 82.102 91.225-36.49 29.648 93.506 95.786-6.842v98.067l95.786 22.806-27.367 93.506 84.383 47.893-54.735 82.102 66.138 70.699-75.261 61.577 41.051 88.944-91.225 34.209 15.964 98.067-98.067 6.842-15.964 98.067-95.786-22.806-43.332 88.944-84.383-50.174z" />
<glyph unicode="&#xe920;" glyph-name="list" horiz-adv-x="828" d="M672.278-64h-516.452c-84.591 0-155.826 71.235-155.826 155.826v712.348c0 84.591 71.235 155.826 155.826 155.826h516.452c84.591 0 155.826-71.235 155.826-155.826v-712.348c0-84.591-71.235-155.826-155.826-155.826zM155.826 915.478c-62.33 0-111.304-48.974-111.304-111.304v-712.348c0-62.33 48.974-111.304 111.304-111.304h516.452c62.33 0 111.304 48.974 111.304 111.304v712.348c0 62.33-48.974 111.304-111.304 111.304h-516.452zM195.896 652.8h356.174v-44.522h-356.174v44.522zM195.896 452.452h445.217v-44.522h-445.217v44.522zM195.896 252.104h445.217v-44.522h-445.217v44.522z" />
<glyph unicode="&#xe921;" glyph-name="logout" horiz-adv-x="810" d="M747.243-64h-747.243v1024h747.243v-172.973h-55.351v117.622h-636.541v-913.297h636.541v124.541h55.351zM539.676 178.162l-41.514 41.514 235.243 228.324-235.243 235.243 41.514 34.595 269.838-269.838zM214.486 475.676h553.514v-55.351h-553.514v55.351z" />
<glyph unicode="&#xe922;" horiz-adv-x="745" d="M745.244 588.326c0-204.8-373.57-652.326-373.57-652.326s-371.674 447.526-371.674 652.326c3.793 204.8 174.459 367.881 381.156 364.089 199.111-5.689 358.4-164.978 364.089-364.089z" />
<glyph unicode="&#xe923;" horiz-adv-x="745" d="M553.719 571.259c0-100.54-81.504-182.044-182.044-182.044s-182.044 81.504-182.044 182.044c0 100.54 81.504 182.044 182.044 182.044s182.044-81.504 182.044-182.044z" />
<glyph unicode="&#xe924;" d="M507.969-64c-282.205 0-507.969 233.827-507.969 516.031s225.764 507.969 507.969 507.969 507.969-225.764 507.969-507.969-225.764-516.031-507.969-516.031zM507.969 879.37c-233.827 0-427.339-193.512-427.339-427.339s193.512-427.339 427.339-427.339c233.827 0 427.339 193.512 427.339 427.339 8.063 233.827-185.449 427.339-427.339 427.339z" />
<glyph unicode="&#xe925;" d="M790.173 452.031c0-155.857-126.347-282.205-282.205-282.205s-282.205 126.347-282.205 282.205c0 155.857 126.347 282.205 282.205 282.205s282.205-126.347 282.205-282.205z" />
<glyph unicode="&#xe926;" glyph-name="radio_inactive" d="M507.969-64c-282.205 0-507.969 233.827-507.969 516.031s225.764 507.969 507.969 507.969 507.969-225.764 507.969-507.969-225.764-516.031-507.969-516.031zM507.969 879.37c-233.827 0-427.339-193.512-427.339-427.339s193.512-427.339 427.339-427.339c233.827 0 427.339 193.512 427.339 427.339 8.063 233.827-185.449 427.339-427.339 427.339z" />
<glyph unicode="&#xe927;" glyph-name="refresh" horiz-adv-x="1158" d="M516.452-64c-17.809 0-26.713 0-44.522 0-133.565 8.904-258.226 71.235-347.27 178.087-186.991 213.704-160.278 543.165 53.426 721.252 213.704 186.991 543.165 160.278 730.157-53.426 80.139-89.043 124.661-213.704 124.661-338.365h-89.043c0 97.948-35.617 195.896-97.948 276.035-71.235 89.043-178.087 142.47-293.843 151.374s-231.513-26.713-311.652-97.948c-178.087-151.374-195.896-418.504-44.522-596.591 71.235-89.043 178.087-142.47 293.843-151.374s222.609 26.713 311.652 97.948l53.426-71.235c-97.948-71.235-222.609-115.757-338.365-115.757zM730.157 612.73l231.513-267.13 195.896 293.843z" />
<glyph unicode="&#xe928;" glyph-name="search" d="M412.024 129.893c-230.249 0-412.024 187.834-412.024 418.083 0 224.189 181.775 412.024 412.024 412.024 224.189 0 412.024-187.834 412.024-412.024-6.059-230.249-187.834-418.083-412.024-418.083zM412.024 899.408c-193.893 0-351.432-157.538-351.432-351.432s157.538-351.432 351.432-351.432c193.893 0 351.432 157.538 351.432 351.432s-163.598 351.432-351.432 351.432zM933.112-64l-212.071 218.13-30.296 127.243 121.183-36.355 212.071-212.071-90.888-96.947zM745.278 166.249l187.834-187.834 48.473 48.473-187.834 187.834-60.592 18.178 12.118-66.651z" />
<glyph unicode="&#xe929;" glyph-name="search1" d="M412.024 129.893c-230.249 0-412.024 187.834-412.024 418.083 0 224.189 181.775 412.024 412.024 412.024 224.189 0 412.024-187.834 412.024-412.024-6.059-230.249-187.834-418.083-412.024-418.083zM412.024 899.408c-193.893 0-351.432-157.538-351.432-351.432s157.538-351.432 351.432-351.432c193.893 0 351.432 157.538 351.432 351.432s-163.598 351.432-351.432 351.432zM933.112-64l-212.071 218.13-30.296 127.243 121.183-36.355 212.071-212.071-90.888-96.947zM745.278 166.249l187.834-187.834 48.473 48.473-187.834 187.834-60.592 18.178 12.118-66.651z" />
<glyph unicode="&#xe92a;" glyph-name="search2" d="M412.024 129.893c-230.249 0-412.024 187.834-412.024 418.083 0 224.189 181.775 412.024 412.024 412.024 224.189 0 412.024-187.834 412.024-412.024-6.059-230.249-187.834-418.083-412.024-418.083zM412.024 899.408c-193.893 0-351.432-157.538-351.432-351.432s157.538-351.432 351.432-351.432c193.893 0 351.432 157.538 351.432 351.432s-163.598 351.432-351.432 351.432zM933.112-64l-212.071 218.13-30.296 127.243 121.183-36.355 212.071-212.071-90.888-96.947zM745.278 166.249l187.834-187.834 48.473 48.473-187.834 187.834-60.592 18.178 12.118-66.651z" />
<glyph unicode="&#xe92b;" glyph-name="secure" horiz-adv-x="801" d="M645.565-64h-489.739c-84.591 0-155.826 71.235-155.826 155.826v400.696c0 84.591 71.235 155.826 155.826 155.826h489.739c84.591 0 155.826-71.235 155.826-155.826v-400.696c0-84.591-71.235-155.826-155.826-155.826zM155.826 603.826c-62.33 0-111.304-53.426-111.304-111.304v-400.696c0-62.33 48.974-111.304 111.304-111.304h489.739c62.33 0 111.304 48.974 111.304 111.304v400.696c0 57.878-48.974 111.304-111.304 111.304h-489.739zM400.696 394.574v0c22.261 0 35.617-17.809 35.617-35.617v-66.783c0-22.261-17.809-35.617-35.617-35.617v0c-22.261 0-35.617 17.809-35.617 35.617v66.783c0 17.809 13.357 35.617 35.617 35.617zM400.696 229.843c-31.165 0-57.878 26.713-57.878 57.878v66.783c0 31.165 26.713 57.878 57.878 57.878v0c31.165 0 57.878-26.713 57.878-57.878v-62.33c0-35.617-26.713-62.33-57.878-62.33zM400.696 372.313c-8.904 0-13.357-4.452-13.357-13.357v-66.783c0-8.904 4.452-13.357 13.357-13.357s13.357 4.452 13.357 13.357v66.783c0 8.904-4.452 13.357-13.357 13.357v0zM400.696 327.791v0c13.357 0 22.261-8.904 22.261-22.261v-97.948c0-13.357-8.904-22.261-22.261-22.261v0c-13.357 0-22.261 8.904-22.261 22.261v97.948c0 13.357 8.904 22.261 22.261 22.261zM400.696 163.061c-26.713 0-44.522 17.809-44.522 44.522v97.948c0 26.713 17.809 44.522 44.522 44.522s44.522-17.809 44.522-44.522v-97.948c0-22.261-17.809-44.522-44.522-44.522zM400.696 327.791v0zM650.017 617.183h-44.522v89.043c0 115.757-93.496 209.252-204.8 209.252-115.757 0-204.8-93.496-204.8-209.252v-80.139h-44.522v80.139c0 138.017 111.304 253.774 249.322 253.774s249.322-115.757 249.322-253.774v-89.043z" />
<glyph unicode="&#xe92c;" glyph-name="select" horiz-adv-x="1698" d="M849.171-64l-849.171 849.171 174.829 174.829 674.341-674.341 674.341 674.341 174.829-174.829z" />
<glyph unicode="&#xe92d;" glyph-name="skype" d="M719.568-57.081c-48.432 0-103.784 13.838-145.297 41.514-290.595-41.514-539.676 186.811-539.676 470.486 0 20.757 0 41.514 6.919 62.27-55.351 96.865-48.432 207.568 6.919 304.432 83.027 138.378 262.919 179.892 401.297 103.784 20.757 0 41.514 6.919 62.27 6.919 0 0 0 0 0 0 27.676 0 48.432 0 76.108-6.919 124.541-20.757 235.243-89.946 311.351-186.811 69.189-96.865 103.784-221.405 83.027-345.946 55.351-96.865 55.351-207.568-6.919-304.432-41.514-69.189-103.784-117.622-186.811-131.459-20.757-13.838-41.514-13.838-69.189-13.838zM588.108 32.865l6.919-6.919c55.351-34.595 124.541-41.514 186.811-27.676s117.622 55.351 152.216 110.703c41.514 69.189 48.432 152.216 13.838 228.324l-34.595-34.595 13.838 76.108c20.757 110.703-6.919 221.405-76.108 318.27-69.189 89.946-166.054 152.216-276.757 166.054-20.757 6.919-41.514 6.919-62.27 6.919 0 0 0 0 0 0-20.757 0-41.514 0-62.27-6.919h-6.919l-13.838 6.919c-55.351 34.595-124.541 48.432-186.811 27.676-62.27-13.838-117.622-55.351-152.216-110.703-48.432-76.108-48.432-172.973 0-256l6.919-6.919v-6.919c0-20.757-6.919-41.514-6.919-62.27 0-256 228.324-456.649 491.243-415.135l6.919-6.919zM726.486 247.351c-20.757-27.676-48.432-48.432-83.027-62.27-41.514-13.838-83.027-20.757-131.459-20.757s-103.784 6.919-152.216 34.595c-27.676 13.838-48.432 34.595-69.189 62.27-13.838 13.838-20.757 34.595-27.676 62.27 0 13.838 6.919 27.676 13.838 34.595 13.838 6.919 27.676 13.838 41.514 13.838s27.676-6.919 34.595-13.838c13.838-6.919 20.757-20.757 20.757-34.595 6.919-13.838 13.838-27.676 27.676-41.514 6.919-13.838 20.757-20.757 34.595-27.676 20.757-6.919 41.514-13.838 62.27-13.838 27.676 0 62.27 6.919 89.946 20.757 27.676 20.757 41.514 41.514 34.595 62.27 0 13.838-6.919 34.595-20.757 41.514-6.919 13.838-20.757 27.676-41.514 27.676-13.838 6.919-41.514 13.838-76.108 20.757s-69.189 20.757-103.784 34.595c-27.676 13.838-55.351 27.676-69.189 48.432-20.757 27.676-34.595 55.351-34.595 83.027 0 34.595 13.838 62.27 27.676 83.027 20.757 27.676 48.432 48.432 83.027 55.351 41.514 13.838 83.027 20.757 124.541 20.757 34.595 0 62.27-6.919 96.865-13.838 27.676-6.919 48.432-20.757 69.189-34.595 13.838-6.919 27.676-20.757 34.595-41.514 6.919-13.838 13.838-27.676 13.838-48.432 0-13.838-6.919-27.676-13.838-34.595-13.838-13.838-27.676-20.757-41.514-20.757s-20.757 0-34.595 13.838c-6.919 6.919-13.838 20.757-20.757 34.595-13.838 13.838-27.676 34.595-41.514 48.432-20.757 13.838-48.432 20.757-69.189 13.838-27.676 0-55.351-6.919-76.108-20.757-20.757-6.919-27.676-20.757-27.676-41.514 0-6.919 0-20.757 6.919-27.676s13.838-13.838 27.676-20.757c13.838-6.919 20.757-13.838 34.595-13.838l55.351-13.838c34.595-6.919 69.189-13.838 96.865-27.676 20.757-6.919 41.514-13.838 69.189-27.676 20.757-13.838 34.595-27.676 48.432-48.432s13.838-48.432 13.838-69.189c0-34.595-13.838-69.189-27.676-96.865v0 0z" />
<glyph unicode="&#xe92e;" glyph-name="skype1" d="M719.568-57.081c-48.432 0-103.784 13.838-145.297 41.514-290.595-41.514-539.676 186.811-539.676 470.486 0 20.757 0 41.514 6.919 62.27-55.351 96.865-48.432 207.568 6.919 304.432 83.027 138.378 262.919 179.892 401.297 103.784 20.757 0 41.514 6.919 62.27 6.919 0 0 0 0 0 0 27.676 0 48.432 0 76.108-6.919 124.541-20.757 235.243-89.946 311.351-186.811 69.189-96.865 103.784-221.405 83.027-345.946 55.351-96.865 55.351-207.568-6.919-304.432-41.514-69.189-103.784-117.622-186.811-131.459-20.757-13.838-41.514-13.838-69.189-13.838zM588.108 32.865l6.919-6.919c55.351-34.595 124.541-41.514 186.811-27.676s117.622 55.351 152.216 110.703c41.514 69.189 48.432 152.216 13.838 228.324l-34.595-34.595 13.838 76.108c20.757 110.703-6.919 221.405-76.108 318.27-69.189 89.946-166.054 152.216-276.757 166.054-20.757 6.919-41.514 6.919-62.27 6.919 0 0 0 0 0 0-20.757 0-41.514 0-62.27-6.919h-6.919l-13.838 6.919c-55.351 34.595-124.541 48.432-186.811 27.676-62.27-13.838-117.622-55.351-152.216-110.703-48.432-76.108-48.432-172.973 0-256l6.919-6.919v-6.919c0-20.757-6.919-41.514-6.919-62.27 0-256 228.324-456.649 491.243-415.135l6.919-6.919zM726.486 247.351c-20.757-27.676-48.432-48.432-83.027-62.27-41.514-13.838-83.027-20.757-131.459-20.757s-103.784 6.919-145.297 34.595c-27.676 13.838-48.432 34.595-69.189 62.27-20.757 13.838-27.676 34.595-27.676 62.27 0 13.838 6.919 27.676 13.838 34.595 13.838 6.919 27.676 13.838 41.514 13.838s27.676-6.919 34.595-13.838c13.838-6.919 20.757-20.757 20.757-34.595 6.919-13.838 13.838-27.676 27.676-41.514 6.919-13.838 20.757-20.757 34.595-27.676 20.757-6.919 41.514-13.838 62.27-13.838 27.676 0 62.27 6.919 89.946 20.757 20.757 20.757 27.676 41.514 27.676 62.27 0 13.838-6.919 34.595-20.757 41.514-6.919 13.838-27.676 27.676-41.514 27.676-20.757 6.919-41.514 13.838-76.108 20.757s-69.189 20.757-110.703 34.595c-27.676 13.838-48.432 27.676-69.189 48.432-13.838 27.676-27.676 55.351-27.676 83.027 0 34.595 13.838 62.27 27.676 83.027 20.757 27.676 48.432 48.432 76.108 55.351 41.514 13.838 83.027 20.757 124.541 20.757 34.595 0 62.27-6.919 96.865-13.838 27.676-6.919 48.432-20.757 69.189-34.595 20.757-6.919 34.595-20.757 41.514-41.514 6.919-13.838 13.838-27.676 13.838-48.432 0-13.838-6.919-27.676-13.838-34.595-13.838-13.838-27.676-20.757-41.514-20.757s-20.757 0-34.595 13.838c-13.838 6.919-20.757 20.757-27.676 34.595s-20.757 34.595-34.595 48.432c-20.757 13.838-48.432 20.757-76.108 13.838-27.676 0-55.351-6.919-76.108-20.757-13.838-6.919-27.676-20.757-27.676-41.514 0-6.919 0-20.757 6.919-27.676 13.838-6.919 20.757-13.838 34.595-20.757s20.757-13.838 34.595-13.838l55.351-13.838c34.595-6.919 62.27-13.838 89.946-20.757s48.432-20.757 69.189-34.595c20.757-13.838 34.595-27.676 48.432-48.432s13.838-48.432 13.838-69.189c0-34.595-6.919-69.189-20.757-96.865v0 0z" />
<glyph unicode="&#xe92f;" d="M1024.866 447.567c0-283.009-229.424-512.433-512.433-512.433s-512.433 229.424-512.433 512.433c0 283.009 229.424 512.433 512.433 512.433s512.433-229.424 512.433-512.433z" />
<glyph unicode="&#xe930;" d="M721.041 447.567c0-119.514-96.885-216.399-216.399-216.399s-216.399 96.885-216.399 216.399c0 119.514 96.885 216.399 216.399 216.399s216.399-96.885 216.399-216.399z" />
<glyph unicode="&#xe931;" glyph-name="time" horiz-adv-x="709" d="M709.264 791.55h-709.264v168.45h709.264v-168.45zM44.329 835.879h620.606v79.792h-620.606v-79.792zM709.264-64h-709.264v168.45h709.264v-168.45zM44.329-19.671h620.606v79.792h-620.606v-79.792zM629.472 68.987h-549.68v22.165c0 0 4.433 88.658 4.433 146.286-4.433 84.225 35.463 168.45 101.957 212.779-70.926 48.762-110.823 128.554-106.39 217.212 0 44.329-4.433 128.554-4.433 128.554v22.165h549.68v-22.165c0 0-4.433-84.225-4.433-132.987 4.433-84.225-35.463-168.45-106.39-212.779 70.926-44.329 115.255-128.554 106.39-212.779 0-57.628 4.433-141.853 4.433-141.853l4.433-26.597zM128.554 113.316h456.589c0 31.030 0 84.225 0 124.121 4.433 84.225-44.329 159.584-119.688 190.615l-48.762 22.165 48.762 22.165c75.359 31.030 124.121 110.823 119.688 190.615 0 35.463 0 84.225 0 110.823h-461.022c0-31.030 0-79.792 0-110.823-4.433-79.792 44.329-159.584 119.688-190.615l44.329-22.165-44.329-22.165c-75.359-31.030-119.688-110.823-115.255-190.615v0c0-39.896 0-93.091 0-124.121zM359.065 463.515c57.628 13.299 106.39 48.762 137.42 101.957 17.732 31.030 26.597 62.061 31.030 97.524h-332.468c0-39.896 8.866-79.792 35.463-110.823 31.030-44.329 75.359-75.359 128.554-88.658zM336.9 525.576h44.329v-305.87h-44.329v305.87z" />
<glyph unicode="&#xe932;" glyph-name="twi" horiz-adv-x="1355" d="M473.114-64c-136.101 0-272.203 38.886-388.861 116.658l-84.253 58.329 110.177-12.962c19.443 0 38.886-6.481 51.848-6.481 0 0 0 0 0 0 84.253 0 168.506 25.924 239.797 64.81-90.734 25.924-162.025 90.734-187.949 174.987l-12.962 38.886 38.886-6.481c0 0 0 0 0 0-64.81 51.848-110.177 129.62-110.177 220.354v38.886l38.886-19.443c6.481-6.481 12.962-6.481 19.443-6.481-38.886 45.367-58.329 103.696-58.329 162.025 0 45.367 12.962 90.734 38.886 136.101l19.443 32.405 19.443-32.405c110.177-136.101 278.684-226.835 453.671-239.797 0 12.962 0 19.443 0 32.405 0 149.063 116.658 265.722 265.722 265.722 0 0 0 0 0 0 71.291 0 136.101-25.924 187.949-77.772 45.367 12.962 90.734 25.924 136.101 51.848l51.848 32.405-19.443-58.329c-6.481-32.405-25.924-58.329-45.367-84.253 12.962 6.481 32.405 12.962 45.367 19.443l77.772 32.405-45.367-71.291c-32.405-51.848-71.291-90.734-123.139-129.62v-19.443c0-187.949-71.291-369.418-207.392-505.519s-317.57-207.392-512-207.392c6.481 0 6.481 0 0 0zM200.911 46.177c84.253-38.886 181.468-58.329 272.203-58.329 0 0 0 0 0 0 369.418 0 667.544 298.127 667.544 667.544v51.848h19.443c19.443 12.962 38.886 32.405 58.329 51.848-19.443-6.481-45.367-6.481-64.81-12.962l-116.658-12.962 97.215 58.329c25.924 12.962 45.367 32.405 64.81 58.329-32.405-12.962-64.81-19.443-97.215-25.924h-12.962v6.481c-38.886 45.367-97.215 71.291-162.025 71.291 0 0 0 0 0 0-123.139 0-220.354-97.215-220.354-220.354 0-19.443 0-32.405 6.481-51.848l6.481-32.405h-32.405c-187.949 12.962-362.937 97.215-492.557 239.797-6.481-25.924-12.962-51.848-12.962-77.772 0-77.772 32.405-142.582 97.215-187.949l71.291-45.367h-90.734c-25.924 0-51.848 6.481-77.772 12.962 12.962-84.253 84.253-155.544 168.506-168.506l103.696-25.924-103.696-25.924c-19.443-6.481-45.367-6.481-71.291-6.481 0 0-6.481 0-6.481 0 38.886-71.291 110.177-116.658 187.949-116.658h64.81l-51.848-38.886c-71.291-64.81-168.506-103.696-272.203-110.177z" />
<glyph unicode="&#xe933;" glyph-name="upload" d="M492.495 960h39.010v-1024h-39.010v1024zM0 467.505h1024v-39.010h-1024v39.010z" />
<glyph unicode="&#xe934;" glyph-name="vk" d="M809.017-64h-594.033c-118.807 0-214.983 96.177-214.983 214.983v594.033c0 118.807 96.177 214.983 214.983 214.983h599.691c118.807 0 214.983-96.177 214.983-214.983v-594.033c-5.657-118.807-101.834-214.983-220.641-214.983zM198.011 914.74c-84.862-5.657-158.409-79.204-158.409-169.724v-594.033c0-96.177 79.204-169.724 169.724-169.724h594.033c96.177 0 169.724 79.204 169.724 169.724v594.033c0 96.177-79.204 169.724-169.724 169.724h-605.348zM548.773 150.983c-5.657 0-5.657 0-11.315 0h-237.613v588.376h214.983c28.287 0 62.232 0 96.177-5.657 22.63-5.657 45.26-11.315 62.232-22.63 22.63-11.315 39.602-28.287 50.917-50.917s16.972-45.26 16.972-73.547c0-28.287-5.657-56.575-22.63-84.862-5.657-11.315-16.972-22.63-28.287-33.945 16.972-5.657 33.945-22.63 50.917-33.945 28.287-28.287 39.602-67.89 39.602-107.492v-22.63c0-22.63-5.657-39.602-16.972-62.232s-28.287-45.26-45.26-56.575c-22.63-16.972-45.26-28.287-73.547-39.602-33.945 5.657-62.232 5.657-96.177 5.657zM345.105 190.586h198.011c28.287 0 62.232 0 90.519 11.315 22.63 5.657 39.602 16.972 62.232 28.287 16.972 11.315 28.287 28.287 33.945 45.26 11.315 16.972 11.315 39.602 11.315 62.232v22.63c0 16.972-11.315 39.602-22.63 50.917-16.972 16.972-39.602 28.287-67.89 33.945l-22.63 5.657v33.945l11.315 5.657c16.972 5.657 33.945 22.63 45.26 39.602s16.972 39.602 16.972 56.575c0 16.972-5.657 33.945-11.315 50.917s-22.63 28.287-33.945 33.945c-16.972 11.315-33.945 16.972-50.917 16.972-28.287 5.657-56.575 5.657-90.519 5.657h-169.724v-503.514zM458.254 247.16h-16.972v181.039h107.492c11.315 0 28.287 0 39.602-5.657 16.972-5.657 28.287-16.972 39.602-28.287 11.315-16.972 16.972-33.945 16.972-50.917v0c0-16.972-5.657-33.945-11.315-45.26-11.315-16.972-22.63-28.287-39.602-33.945s-33.945-11.315-50.917-11.315h-84.862zM480.884 292.42h62.232c11.315 0 22.63 5.657 33.945 5.657 5.657 5.657 11.315 5.657 16.972 16.972 5.657 5.657 5.657 16.972 5.657 22.63v0c0 11.315 0 16.972-5.657 28.287-5.657 5.657-11.315 11.315-16.972 11.315-11.315 5.657-22.63 5.657-28.287 5.657h-67.89v-90.519zM458.254 484.773h-16.972v152.751h84.862c16.972 0 28.287-5.657 39.602-5.657 16.972-5.657 28.287-16.972 33.945-28.287s5.657-22.63 11.315-33.945v0c0-11.315 0-28.287-5.657-39.602-5.657-16.972-16.972-28.287-33.945-33.945s-28.287-11.315-45.26-11.315h-67.89zM480.884 524.376h45.26c5.657 0 11.315 0 22.63 5.657 5.657 0 11.315 5.657 11.315 11.315s5.657 16.972 5.657 22.63v0c0 5.657 0 11.315-5.657 16.972 0 5.657-5.657 11.315-11.315 11.315s-16.972 5.657-22.63 5.657h-45.26v-73.547z" />
<glyph unicode="&#xe935;" glyph-name="write" d="M768-64h-768v1024h768v-152.216h-48.432v96.865h-664.216v-913.297h664.216v359.784h48.432zM422.054 81.297l-159.135 166.054 581.189 601.946 159.135-159.135-581.189-608.865zM339.027 247.351l83.027-89.946 512 532.757-83.027 89.946-512-532.757zM207.568 19.027l69.189 235.243 48.432-13.838-41.514-138.378 131.459 41.514 20.757-48.432zM996.324 676.324l-41.514 34.595c20.757 27.676 13.838 62.27-6.919 83.027-20.757 27.676-55.351 27.676-76.108 6.919l-34.595 41.514c41.514 34.595 110.703 34.595 145.297-13.838 48.432-41.514 48.432-103.784 13.838-152.216z" />
<glyph unicode="&#xe936;" glyph-name="ytube" horiz-adv-x="1438" d="M715.487-64c-13.128 0-361.026 6.564-472.615 13.128-59.077 0-118.154 26.256-164.103 65.641-32.821 45.949-59.077 98.462-65.641 150.974-6.564 78.769-13.128 157.538-13.128 229.744v105.026c0 78.769 6.564 150.974 13.128 229.744 6.564 52.513 26.256 105.026 59.077 150.974 45.949 45.949 98.462 65.641 157.538 65.641 196.923 13.128 485.744 13.128 485.744 13.128s295.385 0 485.744-19.692c59.077 0 111.59-26.256 157.538-65.641 32.821-45.949 52.513-98.462 59.077-150.974v0c6.564-72.205 13.128-150.974 13.128-223.179v-105.026c0-78.769-6.564-150.974-13.128-229.744-6.564-52.513-26.256-105.026-59.077-150.974-45.949-45.949-98.462-65.641-157.538-65.641-190.359-13.128-479.179-13.128-485.744-13.128zM715.487 914.051c0 0-295.385 0-485.744-13.128-45.949 0-91.897-19.692-124.718-52.513-19.692-32.821-32.821-78.769-39.385-124.718-13.128-72.205-13.128-144.41-13.128-223.179v-105.026c0-72.205 6.564-150.974 13.128-223.179 6.564-45.949 26.256-91.897 52.513-124.718 32.821-32.821 85.333-45.949 131.282-45.949 111.59-13.128 466.051-13.128 472.615-13.128 0 0 295.385 0 485.744 13.128 45.949 0 91.897 19.692 124.718 52.513 26.256 32.821 39.385 78.769 45.949 124.718 6.564 72.205 13.128 150.974 13.128 223.179v98.462c0 72.205-6.564 144.41-13.128 216.615-6.564 45.949-26.256 91.897-52.513 124.718-32.821 39.385-78.769 52.513-124.718 52.513-190.359 19.692-479.179 19.692-485.744 19.692zM551.385 224.821v472.615l452.923-236.308-452.923-236.308zM597.333 618.667v-315.077l295.385 157.538-295.385 157.538z" />
<glyph unicode="&#xe937;" glyph-name="home" horiz-adv-x="904" d="M903.529-64h-903.529v542.118l451.765 481.882 451.765-481.882v-542.118zM100.392 36.392h702.745v401.569l-351.373 371.451-351.373-371.451v-401.569z" />
</font>
</defs>
</svg>
